<svg xmlns="http://www.w3.org/2000/svg" xmlns:xlink="http://www.w3.org/1999/xlink" width="627" zoomAndPan="magnify" viewBox="0 0 470.25 182.249993" height="243" preserveAspectRatio="xMidYMid meet" version="1.0"><defs><g/><clipPath id="08d19ca1b8"><path d="M 84.957031 94.023438 L 163.203125 94.023438 L 163.203125 172.023438 L 84.957031 172.023438 Z M 84.957031 94.023438 " clip-rule="nonzero"/></clipPath><clipPath id="2a1faf428b"><path d="M 7.636719 16.949219 L 85.882812 16.949219 L 85.882812 94.949219 L 7.636719 94.949219 Z M 7.636719 16.949219 " clip-rule="nonzero"/></clipPath><clipPath id="da0e65f6b2"><path d="M 7.636719 94.023438 L 85.882812 94.023438 L 85.882812 172.023438 L 7.636719 172.023438 Z M 7.636719 94.023438 " clip-rule="nonzero"/></clipPath><clipPath id="87d162a56f"><path d="M 84.957031 16.949219 L 163.203125 16.949219 L 163.203125 94.949219 L 84.957031 94.949219 Z M 84.957031 16.949219 " clip-rule="nonzero"/></clipPath><clipPath id="a5aea20c19"><path d="M 101.160156 33.027344 L 147.003906 33.027344 L 147.003906 78.871094 L 101.160156 78.871094 Z M 101.160156 33.027344 " clip-rule="nonzero"/></clipPath><clipPath id="44cdc2e26a"><path d="M 124.082031 33.027344 C 111.421875 33.027344 101.160156 43.289062 101.160156 55.949219 C 101.160156 68.605469 111.421875 78.871094 124.082031 78.871094 C 136.742188 78.871094 147.003906 68.605469 147.003906 55.949219 C 147.003906 43.289062 136.742188 33.027344 124.082031 33.027344 Z M 124.082031 33.027344 " clip-rule="nonzero"/></clipPath><linearGradient x1="-0.0000122774" gradientTransform="matrix(0.179076, 0, 0, 0.179076, 101.15929, 33.025983)" y1="0" x2="255.999982" gradientUnits="userSpaceOnUse" y2="0" id="a86a0ef5b5"><stop stop-opacity="1" stop-color="rgb(100%, 19.198608%, 19.198608%)" offset="0"/><stop stop-opacity="1" stop-color="rgb(100%, 19.345093%, 19.241333%)" offset="0.0078125"/><stop stop-opacity="1" stop-color="rgb(100%, 19.639587%, 19.328308%)" offset="0.015625"/><stop stop-opacity="1" stop-color="rgb(100%, 19.934082%, 19.413757%)" offset="0.0234375"/><stop stop-opacity="1" stop-color="rgb(100%, 20.230103%, 19.499207%)" offset="0.03125"/><stop stop-opacity="1" stop-color="rgb(100%, 20.524597%, 19.586182%)" offset="0.0390625"/><stop stop-opacity="1" stop-color="rgb(100%, 20.819092%, 19.671631%)" offset="0.046875"/><stop stop-opacity="1" stop-color="rgb(100%, 21.113586%, 19.75708%)" offset="0.0546875"/><stop stop-opacity="1" stop-color="rgb(100%, 21.408081%, 19.844055%)" offset="0.0625"/><stop stop-opacity="1" stop-color="rgb(100%, 21.702576%, 19.929504%)" offset="0.0703125"/><stop stop-opacity="1" stop-color="rgb(100%, 21.99707%, 20.014954%)" offset="0.078125"/><stop stop-opacity="1" stop-color="rgb(100%, 22.291565%, 20.101929%)" offset="0.0859375"/><stop stop-opacity="1" stop-color="rgb(100%, 22.58606%, 20.187378%)" offset="0.09375"/><stop stop-opacity="1" stop-color="rgb(100%, 22.880554%, 20.272827%)" offset="0.101562"/><stop stop-opacity="1" stop-color="rgb(100%, 23.175049%, 20.359802%)" offset="0.109375"/><stop stop-opacity="1" stop-color="rgb(100%, 23.469543%, 20.445251%)" offset="0.117188"/><stop stop-opacity="1" stop-color="rgb(100%, 23.764038%, 20.530701%)" offset="0.125"/><stop stop-opacity="1" stop-color="rgb(100%, 24.058533%, 20.617676%)" offset="0.132812"/><stop stop-opacity="1" stop-color="rgb(100%, 24.353027%, 20.703125%)" offset="0.140625"/><stop stop-opacity="1" stop-color="rgb(100%, 24.647522%, 20.788574%)" offset="0.148438"/><stop stop-opacity="1" stop-color="rgb(100%, 24.942017%, 20.874023%)" offset="0.15625"/><stop stop-opacity="1" stop-color="rgb(100%, 25.236511%, 20.960999%)" offset="0.164063"/><stop stop-opacity="1" stop-color="rgb(100%, 25.531006%, 21.046448%)" offset="0.171875"/><stop stop-opacity="1" stop-color="rgb(100%, 25.8255%, 21.131897%)" offset="0.179688"/><stop stop-opacity="1" stop-color="rgb(100%, 26.119995%, 21.218872%)" offset="0.1875"/><stop stop-opacity="1" stop-color="rgb(100%, 26.41449%, 21.304321%)" offset="0.195312"/><stop stop-opacity="1" stop-color="rgb(100%, 26.708984%, 21.389771%)" offset="0.203125"/><stop stop-opacity="1" stop-color="rgb(100%, 27.003479%, 21.476746%)" offset="0.210937"/><stop stop-opacity="1" stop-color="rgb(100%, 27.297974%, 21.562195%)" offset="0.21875"/><stop stop-opacity="1" stop-color="rgb(100%, 27.592468%, 21.647644%)" offset="0.226562"/><stop stop-opacity="1" stop-color="rgb(100%, 27.886963%, 21.734619%)" offset="0.234375"/><stop stop-opacity="1" stop-color="rgb(100%, 28.181458%, 21.820068%)" offset="0.242188"/><stop stop-opacity="1" stop-color="rgb(100%, 28.475952%, 21.905518%)" offset="0.25"/><stop stop-opacity="1" stop-color="rgb(100%, 28.770447%, 21.992493%)" offset="0.257813"/><stop stop-opacity="1" stop-color="rgb(100%, 29.064941%, 22.077942%)" offset="0.265625"/><stop stop-opacity="1" stop-color="rgb(100%, 29.359436%, 22.163391%)" offset="0.273438"/><stop stop-opacity="1" stop-color="rgb(100%, 29.653931%, 22.250366%)" offset="0.28125"/><stop stop-opacity="1" stop-color="rgb(100%, 29.948425%, 22.335815%)" offset="0.289063"/><stop stop-opacity="1" stop-color="rgb(100%, 30.24292%, 22.421265%)" offset="0.296875"/><stop stop-opacity="1" stop-color="rgb(100%, 30.537415%, 22.50824%)" offset="0.304688"/><stop stop-opacity="1" stop-color="rgb(100%, 30.831909%, 22.593689%)" offset="0.3125"/><stop stop-opacity="1" stop-color="rgb(100%, 31.126404%, 22.679138%)" offset="0.320313"/><stop stop-opacity="1" stop-color="rgb(100%, 31.420898%, 22.766113%)" offset="0.328125"/><stop stop-opacity="1" stop-color="rgb(100%, 31.715393%, 22.851562%)" offset="0.335938"/><stop stop-opacity="1" stop-color="rgb(100%, 32.009888%, 22.937012%)" offset="0.34375"/><stop stop-opacity="1" stop-color="rgb(100%, 32.304382%, 23.022461%)" offset="0.351562"/><stop stop-opacity="1" stop-color="rgb(100%, 32.600403%, 23.109436%)" offset="0.359375"/><stop stop-opacity="1" stop-color="rgb(100%, 32.894897%, 23.194885%)" offset="0.367188"/><stop stop-opacity="1" stop-color="rgb(100%, 33.189392%, 23.280334%)" offset="0.375"/><stop stop-opacity="1" stop-color="rgb(100%, 33.483887%, 23.36731%)" offset="0.382812"/><stop stop-opacity="1" stop-color="rgb(100%, 33.778381%, 23.452759%)" offset="0.390625"/><stop stop-opacity="1" stop-color="rgb(100%, 34.072876%, 23.538208%)" offset="0.398438"/><stop stop-opacity="1" stop-color="rgb(100%, 34.367371%, 23.625183%)" offset="0.40625"/><stop stop-opacity="1" stop-color="rgb(100%, 34.661865%, 23.710632%)" offset="0.414062"/><stop stop-opacity="1" stop-color="rgb(100%, 34.95636%, 23.796082%)" offset="0.421875"/><stop stop-opacity="1" stop-color="rgb(100%, 35.250854%, 23.883057%)" offset="0.429687"/><stop stop-opacity="1" stop-color="rgb(100%, 35.545349%, 23.968506%)" offset="0.4375"/><stop stop-opacity="1" stop-color="rgb(100%, 35.839844%, 24.053955%)" offset="0.445312"/><stop stop-opacity="1" stop-color="rgb(100%, 36.134338%, 24.14093%)" offset="0.453125"/><stop stop-opacity="1" stop-color="rgb(100%, 36.428833%, 24.226379%)" offset="0.460937"/><stop stop-opacity="1" stop-color="rgb(100%, 36.723328%, 24.311829%)" offset="0.46875"/><stop stop-opacity="1" stop-color="rgb(100%, 37.017822%, 24.398804%)" offset="0.476562"/><stop stop-opacity="1" stop-color="rgb(100%, 37.312317%, 24.484253%)" offset="0.484375"/><stop stop-opacity="1" stop-color="rgb(100%, 37.606812%, 24.569702%)" offset="0.492187"/><stop stop-opacity="1" stop-color="rgb(100%, 37.901306%, 24.656677%)" offset="0.5"/><stop stop-opacity="1" stop-color="rgb(100%, 38.195801%, 24.742126%)" offset="0.507812"/><stop stop-opacity="1" stop-color="rgb(100%, 38.490295%, 24.827576%)" offset="0.515625"/><stop stop-opacity="1" stop-color="rgb(100%, 38.78479%, 24.914551%)" offset="0.523438"/><stop stop-opacity="1" stop-color="rgb(100%, 39.079285%, 25%)" offset="0.53125"/><stop stop-opacity="1" stop-color="rgb(100%, 39.373779%, 25.085449%)" offset="0.539062"/><stop stop-opacity="1" stop-color="rgb(100%, 39.668274%, 25.170898%)" offset="0.546875"/><stop stop-opacity="1" stop-color="rgb(100%, 39.962769%, 25.257874%)" offset="0.554688"/><stop stop-opacity="1" stop-color="rgb(100%, 40.257263%, 25.343323%)" offset="0.5625"/><stop stop-opacity="1" stop-color="rgb(100%, 40.551758%, 25.428772%)" offset="0.570313"/><stop stop-opacity="1" stop-color="rgb(100%, 40.846252%, 25.515747%)" offset="0.578125"/><stop stop-opacity="1" stop-color="rgb(100%, 41.140747%, 25.601196%)" offset="0.585938"/><stop stop-opacity="1" stop-color="rgb(100%, 41.435242%, 25.686646%)" offset="0.59375"/><stop stop-opacity="1" stop-color="rgb(100%, 41.729736%, 25.773621%)" offset="0.601562"/><stop stop-opacity="1" stop-color="rgb(100%, 42.024231%, 25.85907%)" offset="0.609375"/><stop stop-opacity="1" stop-color="rgb(100%, 42.318726%, 25.944519%)" offset="0.617188"/><stop stop-opacity="1" stop-color="rgb(100%, 42.61322%, 26.031494%)" offset="0.625"/><stop stop-opacity="1" stop-color="rgb(100%, 42.907715%, 26.116943%)" offset="0.632813"/><stop stop-opacity="1" stop-color="rgb(100%, 43.202209%, 26.202393%)" offset="0.640625"/><stop stop-opacity="1" stop-color="rgb(100%, 43.496704%, 26.289368%)" offset="0.648438"/><stop stop-opacity="1" stop-color="rgb(100%, 43.791199%, 26.374817%)" offset="0.65625"/><stop stop-opacity="1" stop-color="rgb(100%, 44.085693%, 26.460266%)" offset="0.664062"/><stop stop-opacity="1" stop-color="rgb(100%, 44.380188%, 26.547241%)" offset="0.671875"/><stop stop-opacity="1" stop-color="rgb(100%, 44.674683%, 26.63269%)" offset="0.679688"/><stop stop-opacity="1" stop-color="rgb(100%, 44.970703%, 26.71814%)" offset="0.6875"/><stop stop-opacity="1" stop-color="rgb(100%, 45.265198%, 26.805115%)" offset="0.695313"/><stop stop-opacity="1" stop-color="rgb(100%, 45.559692%, 26.890564%)" offset="0.703125"/><stop stop-opacity="1" stop-color="rgb(100%, 45.854187%, 26.976013%)" offset="0.710938"/><stop stop-opacity="1" stop-color="rgb(100%, 46.148682%, 27.062988%)" offset="0.71875"/><stop stop-opacity="1" stop-color="rgb(100%, 46.443176%, 27.148438%)" offset="0.726562"/><stop stop-opacity="1" stop-color="rgb(100%, 46.737671%, 27.233887%)" offset="0.734375"/><stop stop-opacity="1" stop-color="rgb(100%, 47.032166%, 27.319336%)" offset="0.742188"/><stop stop-opacity="1" stop-color="rgb(100%, 47.32666%, 27.406311%)" offset="0.75"/><stop stop-opacity="1" stop-color="rgb(100%, 47.621155%, 27.49176%)" offset="0.757812"/><stop stop-opacity="1" stop-color="rgb(100%, 47.915649%, 27.577209%)" offset="0.765625"/><stop stop-opacity="1" stop-color="rgb(100%, 48.210144%, 27.664185%)" offset="0.773438"/><stop stop-opacity="1" stop-color="rgb(100%, 48.504639%, 27.749634%)" offset="0.78125"/><stop stop-opacity="1" stop-color="rgb(100%, 48.799133%, 27.835083%)" offset="0.789062"/><stop stop-opacity="1" stop-color="rgb(100%, 49.093628%, 27.922058%)" offset="0.796875"/><stop stop-opacity="1" stop-color="rgb(100%, 49.388123%, 28.007507%)" offset="0.804687"/><stop stop-opacity="1" stop-color="rgb(100%, 49.682617%, 28.092957%)" offset="0.8125"/><stop stop-opacity="1" stop-color="rgb(100%, 49.977112%, 28.179932%)" offset="0.820312"/><stop stop-opacity="1" stop-color="rgb(100%, 50.271606%, 28.265381%)" offset="0.828125"/><stop stop-opacity="1" stop-color="rgb(100%, 50.566101%, 28.35083%)" offset="0.835938"/><stop stop-opacity="1" stop-color="rgb(100%, 50.860596%, 28.437805%)" offset="0.84375"/><stop stop-opacity="1" stop-color="rgb(100%, 51.15509%, 28.523254%)" offset="0.851562"/><stop stop-opacity="1" stop-color="rgb(100%, 51.449585%, 28.608704%)" offset="0.859375"/><stop stop-opacity="1" stop-color="rgb(100%, 51.74408%, 28.695679%)" offset="0.867187"/><stop stop-opacity="1" stop-color="rgb(100%, 52.038574%, 28.781128%)" offset="0.875"/><stop stop-opacity="1" stop-color="rgb(100%, 52.333069%, 28.866577%)" offset="0.882812"/><stop stop-opacity="1" stop-color="rgb(100%, 52.627563%, 28.953552%)" offset="0.890625"/><stop stop-opacity="1" stop-color="rgb(100%, 52.922058%, 29.039001%)" offset="0.898438"/><stop stop-opacity="1" stop-color="rgb(100%, 53.216553%, 29.124451%)" offset="0.90625"/><stop stop-opacity="1" stop-color="rgb(100%, 53.511047%, 29.211426%)" offset="0.914062"/><stop stop-opacity="1" stop-color="rgb(100%, 53.805542%, 29.296875%)" offset="0.921875"/><stop stop-opacity="1" stop-color="rgb(100%, 54.100037%, 29.382324%)" offset="0.929687"/><stop stop-opacity="1" stop-color="rgb(100%, 54.394531%, 29.467773%)" offset="0.9375"/><stop stop-opacity="1" stop-color="rgb(100%, 54.689026%, 29.554749%)" offset="0.945312"/><stop stop-opacity="1" stop-color="rgb(100%, 54.983521%, 29.640198%)" offset="0.953125"/><stop stop-opacity="1" stop-color="rgb(100%, 55.278015%, 29.725647%)" offset="0.960938"/><stop stop-opacity="1" stop-color="rgb(100%, 55.57251%, 29.812622%)" offset="0.96875"/><stop stop-opacity="1" stop-color="rgb(100%, 55.867004%, 29.898071%)" offset="0.976562"/><stop stop-opacity="1" stop-color="rgb(100%, 56.161499%, 29.983521%)" offset="0.984375"/><stop stop-opacity="1" stop-color="rgb(100%, 56.455994%, 30.070496%)" offset="0.992188"/><stop stop-opacity="1" stop-color="rgb(100%, 56.750488%, 30.155945%)" offset="1"/></linearGradient><clipPath id="705d25af4c"><path d="M 22.25 31.441406 L 71.546875 31.441406 L 71.546875 80.738281 L 22.25 80.738281 Z M 22.25 31.441406 " clip-rule="nonzero"/></clipPath><clipPath id="6bb4ed8cc9"><path d="M 99.574219 108.515625 L 148.871094 108.515625 L 148.871094 157.8125 L 99.574219 157.8125 Z M 99.574219 108.515625 " clip-rule="nonzero"/></clipPath><clipPath id="2f99313e0a"><path d="M 23.835938 110.101562 L 69.679688 110.101562 L 69.679688 155.945312 L 23.835938 155.945312 Z M 23.835938 110.101562 " clip-rule="nonzero"/></clipPath><clipPath id="80b1670fed"><path d="M 46.757812 110.101562 C 34.097656 110.101562 23.835938 120.363281 23.835938 133.023438 C 23.835938 145.683594 34.097656 155.945312 46.757812 155.945312 C 59.417969 155.945312 69.679688 145.683594 69.679688 133.023438 C 69.679688 120.363281 59.417969 110.101562 46.757812 110.101562 Z M 46.757812 110.101562 " clip-rule="nonzero"/></clipPath><linearGradient x1="-0.00000251711" gradientTransform="matrix(0.179076, 0, 0, 0.179076, 23.837091, 110.101384)" y1="0" x2="255.999987" gradientUnits="userSpaceOnUse" y2="0" id="c97156ca1e"><stop stop-opacity="1" stop-color="rgb(0%, 59.199524%, 69.799805%)" offset="0"/><stop stop-opacity="1" stop-color="rgb(0.192261%, 59.300232%, 69.659424%)" offset="0.0078125"/><stop stop-opacity="1" stop-color="rgb(0.576782%, 59.501648%, 69.380188%)" offset="0.015625"/><stop stop-opacity="1" stop-color="rgb(0.96283%, 59.70459%, 69.100952%)" offset="0.0234375"/><stop stop-opacity="1" stop-color="rgb(1.348877%, 59.907532%, 68.821716%)" offset="0.03125"/><stop stop-opacity="1" stop-color="rgb(1.734924%, 60.108948%, 68.544006%)" offset="0.0390625"/><stop stop-opacity="1" stop-color="rgb(2.120972%, 60.31189%, 68.264771%)" offset="0.046875"/><stop stop-opacity="1" stop-color="rgb(2.507019%, 60.513306%, 67.985535%)" offset="0.0546875"/><stop stop-opacity="1" stop-color="rgb(2.893066%, 60.716248%, 67.706299%)" offset="0.0625"/><stop stop-opacity="1" stop-color="rgb(3.279114%, 60.919189%, 67.428589%)" offset="0.0703125"/><stop stop-opacity="1" stop-color="rgb(3.665161%, 61.120605%, 67.149353%)" offset="0.078125"/><stop stop-opacity="1" stop-color="rgb(4.051208%, 61.323547%, 66.870117%)" offset="0.0859375"/><stop stop-opacity="1" stop-color="rgb(4.437256%, 61.524963%, 66.590881%)" offset="0.09375"/><stop stop-opacity="1" stop-color="rgb(4.823303%, 61.727905%, 66.311646%)" offset="0.101562"/><stop stop-opacity="1" stop-color="rgb(5.209351%, 61.930847%, 66.033936%)" offset="0.109375"/><stop stop-opacity="1" stop-color="rgb(5.593872%, 62.132263%, 65.7547%)" offset="0.117187"/><stop stop-opacity="1" stop-color="rgb(5.979919%, 62.335205%, 65.475464%)" offset="0.125"/><stop stop-opacity="1" stop-color="rgb(6.365967%, 62.538147%, 65.196228%)" offset="0.132812"/><stop stop-opacity="1" stop-color="rgb(6.752014%, 62.739563%, 64.918518%)" offset="0.140625"/><stop stop-opacity="1" stop-color="rgb(7.138062%, 62.942505%, 64.639282%)" offset="0.148438"/><stop stop-opacity="1" stop-color="rgb(7.524109%, 63.143921%, 64.360046%)" offset="0.15625"/><stop stop-opacity="1" stop-color="rgb(7.910156%, 63.346863%, 64.080811%)" offset="0.164062"/><stop stop-opacity="1" stop-color="rgb(8.296204%, 63.549805%, 63.801575%)" offset="0.171875"/><stop stop-opacity="1" stop-color="rgb(8.682251%, 63.751221%, 63.523865%)" offset="0.179688"/><stop stop-opacity="1" stop-color="rgb(9.068298%, 63.954163%, 63.244629%)" offset="0.1875"/><stop stop-opacity="1" stop-color="rgb(9.454346%, 64.155579%, 62.965393%)" offset="0.195312"/><stop stop-opacity="1" stop-color="rgb(9.840393%, 64.358521%, 62.686157%)" offset="0.203125"/><stop stop-opacity="1" stop-color="rgb(10.22644%, 64.561462%, 62.406921%)" offset="0.210938"/><stop stop-opacity="1" stop-color="rgb(10.612488%, 64.762878%, 62.129211%)" offset="0.21875"/><stop stop-opacity="1" stop-color="rgb(10.997009%, 64.96582%, 61.849976%)" offset="0.226562"/><stop stop-opacity="1" stop-color="rgb(11.383057%, 65.167236%, 61.57074%)" offset="0.234375"/><stop stop-opacity="1" stop-color="rgb(11.769104%, 65.370178%, 61.291504%)" offset="0.242188"/><stop stop-opacity="1" stop-color="rgb(12.155151%, 65.57312%, 61.013794%)" offset="0.25"/><stop stop-opacity="1" stop-color="rgb(12.541199%, 65.774536%, 60.734558%)" offset="0.257812"/><stop stop-opacity="1" stop-color="rgb(12.927246%, 65.977478%, 60.455322%)" offset="0.265625"/><stop stop-opacity="1" stop-color="rgb(13.313293%, 66.178894%, 60.176086%)" offset="0.273438"/><stop stop-opacity="1" stop-color="rgb(13.699341%, 66.381836%, 59.896851%)" offset="0.28125"/><stop stop-opacity="1" stop-color="rgb(14.085388%, 66.584778%, 59.619141%)" offset="0.289062"/><stop stop-opacity="1" stop-color="rgb(14.471436%, 66.786194%, 59.339905%)" offset="0.296875"/><stop stop-opacity="1" stop-color="rgb(14.857483%, 66.989136%, 59.060669%)" offset="0.304688"/><stop stop-opacity="1" stop-color="rgb(15.24353%, 67.192078%, 58.781433%)" offset="0.3125"/><stop stop-opacity="1" stop-color="rgb(15.629578%, 67.393494%, 58.502197%)" offset="0.320312"/><stop stop-opacity="1" stop-color="rgb(16.015625%, 67.596436%, 58.224487%)" offset="0.328125"/><stop stop-opacity="1" stop-color="rgb(16.400146%, 67.797852%, 57.945251%)" offset="0.335938"/><stop stop-opacity="1" stop-color="rgb(16.786194%, 68.000793%, 57.666016%)" offset="0.34375"/><stop stop-opacity="1" stop-color="rgb(17.172241%, 68.203735%, 57.38678%)" offset="0.351562"/><stop stop-opacity="1" stop-color="rgb(17.558289%, 68.405151%, 57.10907%)" offset="0.359375"/><stop stop-opacity="1" stop-color="rgb(17.944336%, 68.608093%, 56.829834%)" offset="0.367187"/><stop stop-opacity="1" stop-color="rgb(18.330383%, 68.809509%, 56.550598%)" offset="0.375"/><stop stop-opacity="1" stop-color="rgb(18.716431%, 69.012451%, 56.271362%)" offset="0.382812"/><stop stop-opacity="1" stop-color="rgb(19.102478%, 69.215393%, 55.992126%)" offset="0.390625"/><stop stop-opacity="1" stop-color="rgb(19.488525%, 69.416809%, 55.714417%)" offset="0.398438"/><stop stop-opacity="1" stop-color="rgb(19.874573%, 69.619751%, 55.435181%)" offset="0.40625"/><stop stop-opacity="1" stop-color="rgb(20.26062%, 69.821167%, 55.155945%)" offset="0.414062"/><stop stop-opacity="1" stop-color="rgb(20.646667%, 70.024109%, 54.876709%)" offset="0.421875"/><stop stop-opacity="1" stop-color="rgb(21.032715%, 70.227051%, 54.598999%)" offset="0.429688"/><stop stop-opacity="1" stop-color="rgb(21.418762%, 70.428467%, 54.319763%)" offset="0.4375"/><stop stop-opacity="1" stop-color="rgb(21.803284%, 70.631409%, 54.040527%)" offset="0.445312"/><stop stop-opacity="1" stop-color="rgb(22.189331%, 70.832825%, 53.761292%)" offset="0.453125"/><stop stop-opacity="1" stop-color="rgb(22.575378%, 71.035767%, 53.482056%)" offset="0.460938"/><stop stop-opacity="1" stop-color="rgb(22.961426%, 71.238708%, 53.204346%)" offset="0.46875"/><stop stop-opacity="1" stop-color="rgb(23.347473%, 71.440125%, 52.92511%)" offset="0.476562"/><stop stop-opacity="1" stop-color="rgb(23.733521%, 71.643066%, 52.645874%)" offset="0.484375"/><stop stop-opacity="1" stop-color="rgb(24.119568%, 71.846008%, 52.366638%)" offset="0.492188"/><stop stop-opacity="1" stop-color="rgb(24.505615%, 72.047424%, 52.087402%)" offset="0.5"/><stop stop-opacity="1" stop-color="rgb(24.891663%, 72.250366%, 51.809692%)" offset="0.507812"/><stop stop-opacity="1" stop-color="rgb(25.27771%, 72.451782%, 51.530457%)" offset="0.515625"/><stop stop-opacity="1" stop-color="rgb(25.663757%, 72.654724%, 51.251221%)" offset="0.523438"/><stop stop-opacity="1" stop-color="rgb(26.049805%, 72.857666%, 50.971985%)" offset="0.53125"/><stop stop-opacity="1" stop-color="rgb(26.435852%, 73.059082%, 50.694275%)" offset="0.539062"/><stop stop-opacity="1" stop-color="rgb(26.821899%, 73.262024%, 50.415039%)" offset="0.546875"/><stop stop-opacity="1" stop-color="rgb(27.206421%, 73.46344%, 50.135803%)" offset="0.554687"/><stop stop-opacity="1" stop-color="rgb(27.592468%, 73.666382%, 49.856567%)" offset="0.5625"/><stop stop-opacity="1" stop-color="rgb(27.978516%, 73.869324%, 49.577332%)" offset="0.570313"/><stop stop-opacity="1" stop-color="rgb(28.364563%, 74.07074%, 49.299622%)" offset="0.578125"/><stop stop-opacity="1" stop-color="rgb(28.75061%, 74.273682%, 49.020386%)" offset="0.585938"/><stop stop-opacity="1" stop-color="rgb(29.136658%, 74.475098%, 48.74115%)" offset="0.59375"/><stop stop-opacity="1" stop-color="rgb(29.522705%, 74.67804%, 48.461914%)" offset="0.601562"/><stop stop-opacity="1" stop-color="rgb(29.908752%, 74.880981%, 48.182678%)" offset="0.609375"/><stop stop-opacity="1" stop-color="rgb(30.2948%, 75.082397%, 47.904968%)" offset="0.617187"/><stop stop-opacity="1" stop-color="rgb(30.680847%, 75.285339%, 47.625732%)" offset="0.625"/><stop stop-opacity="1" stop-color="rgb(31.066895%, 75.486755%, 47.346497%)" offset="0.632812"/><stop stop-opacity="1" stop-color="rgb(31.452942%, 75.689697%, 47.067261%)" offset="0.640625"/><stop stop-opacity="1" stop-color="rgb(31.838989%, 75.892639%, 46.789551%)" offset="0.648438"/><stop stop-opacity="1" stop-color="rgb(32.225037%, 76.094055%, 46.510315%)" offset="0.65625"/><stop stop-opacity="1" stop-color="rgb(32.609558%, 76.296997%, 46.231079%)" offset="0.664062"/><stop stop-opacity="1" stop-color="rgb(32.995605%, 76.498413%, 45.951843%)" offset="0.671875"/><stop stop-opacity="1" stop-color="rgb(33.381653%, 76.701355%, 45.672607%)" offset="0.679688"/><stop stop-opacity="1" stop-color="rgb(33.7677%, 76.904297%, 45.394897%)" offset="0.6875"/><stop stop-opacity="1" stop-color="rgb(34.153748%, 77.105713%, 45.115662%)" offset="0.695312"/><stop stop-opacity="1" stop-color="rgb(34.539795%, 77.308655%, 44.836426%)" offset="0.703125"/><stop stop-opacity="1" stop-color="rgb(34.925842%, 77.511597%, 44.55719%)" offset="0.710937"/><stop stop-opacity="1" stop-color="rgb(35.31189%, 77.713013%, 44.27948%)" offset="0.71875"/><stop stop-opacity="1" stop-color="rgb(35.697937%, 77.915955%, 44.000244%)" offset="0.726563"/><stop stop-opacity="1" stop-color="rgb(36.083984%, 78.117371%, 43.721008%)" offset="0.734375"/><stop stop-opacity="1" stop-color="rgb(36.470032%, 78.320312%, 43.441772%)" offset="0.742188"/><stop stop-opacity="1" stop-color="rgb(36.856079%, 78.523254%, 43.162537%)" offset="0.75"/><stop stop-opacity="1" stop-color="rgb(37.242126%, 78.72467%, 42.884827%)" offset="0.757812"/><stop stop-opacity="1" stop-color="rgb(37.628174%, 78.927612%, 42.605591%)" offset="0.765625"/><stop stop-opacity="1" stop-color="rgb(38.012695%, 79.129028%, 42.326355%)" offset="0.773437"/><stop stop-opacity="1" stop-color="rgb(38.398743%, 79.33197%, 42.047119%)" offset="0.78125"/><stop stop-opacity="1" stop-color="rgb(38.78479%, 79.534912%, 41.767883%)" offset="0.789062"/><stop stop-opacity="1" stop-color="rgb(39.170837%, 79.736328%, 41.490173%)" offset="0.796875"/><stop stop-opacity="1" stop-color="rgb(39.556885%, 79.93927%, 41.210938%)" offset="0.804688"/><stop stop-opacity="1" stop-color="rgb(39.942932%, 80.140686%, 40.931702%)" offset="0.8125"/><stop stop-opacity="1" stop-color="rgb(40.328979%, 80.343628%, 40.652466%)" offset="0.820312"/><stop stop-opacity="1" stop-color="rgb(40.715027%, 80.54657%, 40.374756%)" offset="0.828125"/><stop stop-opacity="1" stop-color="rgb(41.101074%, 80.747986%, 40.09552%)" offset="0.835938"/><stop stop-opacity="1" stop-color="rgb(41.487122%, 80.950928%, 39.816284%)" offset="0.84375"/><stop stop-opacity="1" stop-color="rgb(41.873169%, 81.152344%, 39.537048%)" offset="0.851562"/><stop stop-opacity="1" stop-color="rgb(42.259216%, 81.355286%, 39.257812%)" offset="0.859375"/><stop stop-opacity="1" stop-color="rgb(42.645264%, 81.558228%, 38.980103%)" offset="0.867187"/><stop stop-opacity="1" stop-color="rgb(43.031311%, 81.759644%, 38.700867%)" offset="0.875"/><stop stop-opacity="1" stop-color="rgb(43.415833%, 81.962585%, 38.421631%)" offset="0.882813"/><stop stop-opacity="1" stop-color="rgb(43.80188%, 82.165527%, 38.142395%)" offset="0.890625"/><stop stop-opacity="1" stop-color="rgb(44.187927%, 82.366943%, 37.863159%)" offset="0.898438"/><stop stop-opacity="1" stop-color="rgb(44.573975%, 82.569885%, 37.585449%)" offset="0.90625"/><stop stop-opacity="1" stop-color="rgb(44.960022%, 82.771301%, 37.306213%)" offset="0.914062"/><stop stop-opacity="1" stop-color="rgb(45.346069%, 82.974243%, 37.026978%)" offset="0.921875"/><stop stop-opacity="1" stop-color="rgb(45.732117%, 83.177185%, 36.747742%)" offset="0.929688"/><stop stop-opacity="1" stop-color="rgb(46.118164%, 83.378601%, 36.470032%)" offset="0.9375"/><stop stop-opacity="1" stop-color="rgb(46.504211%, 83.581543%, 36.190796%)" offset="0.945312"/><stop stop-opacity="1" stop-color="rgb(46.890259%, 83.782959%, 35.91156%)" offset="0.953125"/><stop stop-opacity="1" stop-color="rgb(47.276306%, 83.985901%, 35.632324%)" offset="0.960938"/><stop stop-opacity="1" stop-color="rgb(47.662354%, 84.188843%, 35.353088%)" offset="0.96875"/><stop stop-opacity="1" stop-color="rgb(48.048401%, 84.390259%, 35.075378%)" offset="0.976563"/><stop stop-opacity="1" stop-color="rgb(48.432922%, 84.593201%, 34.796143%)" offset="0.984375"/><stop stop-opacity="1" stop-color="rgb(48.81897%, 84.794617%, 34.516907%)" offset="0.992188"/><stop stop-opacity="1" stop-color="rgb(49.205017%, 84.997559%, 34.237671%)" offset="1"/></linearGradient></defs><g clip-path="url(#08d19ca1b8)"><path fill="#00bf63" d="M 84.957031 94.023438 L 163.261719 94.023438 L 163.261719 172.023438 L 84.957031 172.023438 Z M 84.957031 94.023438 " fill-opacity="1" fill-rule="nonzero"/></g><g clip-path="url(#2a1faf428b)"><path fill="#0097b2" d="M 7.636719 16.949219 L 85.941406 16.949219 L 85.941406 94.949219 L 7.636719 94.949219 Z M 7.636719 16.949219 " fill-opacity="1" fill-rule="nonzero"/></g><g clip-path="url(#da0e65f6b2)"><path fill="#ea3333" d="M 7.636719 94.023438 L 85.941406 94.023438 L 85.941406 172.023438 L 7.636719 172.023438 Z M 7.636719 94.023438 " fill-opacity="1" fill-rule="nonzero"/></g><g clip-path="url(#87d162a56f)"><path fill="#ffa500" d="M 84.957031 16.949219 L 163.261719 16.949219 L 163.261719 94.949219 L 84.957031 94.949219 Z M 84.957031 16.949219 " fill-opacity="1" fill-rule="nonzero"/></g><g clip-path="url(#a5aea20c19)"><g clip-path="url(#44cdc2e26a)"><path fill="url(#a86a0ef5b5)" d="M 101.160156 33.027344 L 101.160156 78.871094 L 147.003906 78.871094 L 147.003906 33.027344 Z M 101.160156 33.027344 " fill-rule="nonzero"/></g></g><g clip-path="url(#705d25af4c)"><path fill="#ffa500" d="M 69.8125 72.265625 L 55.351562 56.367188 L 71.253906 41.898438 L 63.066406 32.898438 L 47.164062 47.363281 L 32.699219 31.460938 L 23.699219 39.648438 L 38.164062 55.550781 L 22.261719 70.015625 L 30.449219 79.011719 L 46.351562 64.554688 L 60.8125 80.449219 L 69.8125 72.265625 " fill-opacity="1" fill-rule="nonzero"/></g><g fill="#ffffff" fill-opacity="1"><g transform="translate(191.662391, 73.65724)"><g><path d="M 28.851562 -45.574219 C 17.378906 -45.574219 18.523438 -45.984375 5.574219 -45.984375 C 4.507812 -45.984375 3.605469 -45.738281 3.359375 -45.328125 L 2.949219 -44.019531 C 2.460938 -40.492188 2.785156 -31.394531 2.785156 -28.523438 C 6.394531 -26.558594 13.195312 -27.378906 15.984375 -26.96875 L 15.984375 -26.3125 C 15.984375 -24.917969 16.230469 -23.523438 16.230469 -21.886719 L 16.230469 -11.886719 C 16.230469 -5.164062 15.492188 -0.902344 15.492188 4.425781 C 15.492188 5.246094 16.558594 5.492188 19.097656 5.492188 C 27.625 5.492188 33.609375 3.851562 33.527344 3.851562 L 33.527344 0.902344 C 33.527344 -6.230469 32.789062 -6.722656 32.789062 -15.328125 L 32.789062 -16.804688 L 32.460938 -27.625 L 32.460938 -28.6875 L 45 -29.015625 L 45 -45.902344 C 36.96875 -45.902344 35.820312 -45.574219 28.851562 -45.574219 Z M 28.851562 -45.574219 "/></g></g></g><g fill="#ffffff" fill-opacity="1"><g transform="translate(242.149933, 73.65724)"><g><path d="M 18.195312 3.933594 C 16.96875 -3.277344 18.117188 -11.804688 18.117188 -14.507812 C 18.117188 -19.671875 17.460938 -25.082031 18.195312 -30.164062 L 18.195312 -30.820312 L 17.460938 -45.410156 C 16.96875 -45.65625 12.378906 -46.066406 10.820312 -46.066406 C 9.261719 -46.066406 2.949219 -45.65625 1.476562 -45.492188 L 2.785156 -28.851562 C 2.296875 -16.066406 2.460938 -14.917969 2.460938 -13.6875 L 2.460938 -10.65625 C 2.460938 -8.523438 2.214844 -6.640625 2.214844 -4.507812 L 2.214844 3.359375 C 2.214844 3.851562 2.296875 4.34375 2.296875 4.917969 L 4.671875 5.164062 C 5 4.671875 16.066406 5 18.117188 5 Z M 18.195312 3.933594 "/></g></g></g><g fill="#ffffff" fill-opacity="1"><g transform="translate(266.574524, 73.65724)"><g><path d="M 27.214844 -46.148438 C 25.164062 -46.066406 23.28125 -46.148438 21.394531 -45.984375 L 17.871094 -45.65625 C 4.917969 -44.425781 1.96875 -36.230469 1.96875 -20.246094 L 1.96875 -15.410156 C 1.96875 -13.769531 2.214844 -11.066406 2.542969 -9.425781 C 4.34375 -0.410156 5.574219 7.542969 20.492188 9.097656 L 23.117188 9.425781 C 24.261719 9.507812 25.65625 9.671875 26.886719 9.671875 L 30.246094 9.671875 C 31.476562 9.671875 32.789062 9.589844 33.851562 9.425781 L 36.148438 9.179688 C 40.410156 8.6875 46.476562 6.640625 47.871094 3.113281 L 48.363281 1.886719 C 48.609375 1.640625 48.691406 0.738281 48.691406 -0.328125 C 48.691406 -2.460938 48.363281 -5.328125 48.035156 -5.738281 L 31.3125 -5.902344 C 30.984375 -5.246094 30.820312 -2.621094 27.625 -2.621094 C 16.804688 -2.621094 18.523438 -34.261719 27.953125 -34.261719 L 28.6875 -34.261719 C 31.96875 -34.261719 32.050781 -32.542969 32.050781 -30.492188 C 32.050781 -28.035156 31.804688 -26.066406 31.558594 -24.261719 L 50.164062 -24.015625 C 51.3125 -26.066406 51.3125 -27.214844 51.3125 -29.671875 C 51.148438 -33.363281 50.984375 -36.3125 49.425781 -39.261719 L 48.609375 -40.820312 C 46.476562 -45.574219 38.855469 -46.148438 27.214844 -46.148438 Z M 27.214844 -46.148438 "/></g></g></g><g fill="#ffffff" fill-opacity="1"><g transform="translate(323.290943, 73.65724)"><g><path d="M 29.425781 -46.230469 C 30.410156 -42.953125 30.820312 -34.671875 27.050781 -28.933594 C 26.804688 -28.28125 26.476562 -27.789062 26.230469 -27.214844 L 24.671875 -24.261719 C 24.179688 -23.605469 23.851562 -22.789062 23.359375 -22.296875 L 22.132812 -20.820312 C 22.132812 -21.96875 21.96875 -23.6875 21.804688 -25.738281 L 21.804688 -28.605469 C 21.804688 -32.953125 21.96875 -31.394531 22.050781 -50 C 22.050781 -50.410156 21.96875 -50.820312 21.96875 -51.066406 L 21.96875 -51.886719 C 21.722656 -53.199219 21.230469 -54.183594 20.082031 -54.347656 C 13.605469 -55.246094 9.753906 -55.328125 7.214844 -55.328125 C 5.410156 -55.328125 4.261719 -55.246094 3.195312 -55.246094 C 3.195312 -52.542969 3.441406 -49.835938 3.441406 -47.132812 L 3.769531 -45.164062 C 3.769531 -42.707031 3.933594 -39.589844 3.933594 -36.558594 L 3.851562 -34.917969 L 3.851562 -33.28125 C 3.851562 -31.066406 3.933594 -29.015625 3.933594 -26.558594 L 3.933594 -19.015625 C 3.933594 -18.441406 4.015625 -17.953125 4.015625 -17.296875 C 4.015625 -16.804688 3.933594 -16.3125 3.933594 -15.820312 L 4.015625 -6.394531 C 4.261719 -1.96875 4.425781 3.441406 4.425781 6.066406 C 4.425781 8.113281 5 10.246094 5.082031 12.296875 C 5.082031 13.523438 5.164062 14.671875 5.328125 15.902344 C 7.625 15.902344 10.410156 15.738281 13.113281 15.738281 C 15.164062 15.738281 17.132812 15.820312 18.933594 16.148438 L 20.984375 16.558594 C 20.984375 14.835938 21.066406 9.34375 21.066406 5.410156 L 21.066406 0.738281 C 26.476562 3.6875 28.035156 5.738281 30.082031 10.328125 C 30.820312 12.214844 31.886719 14.34375 32.625 15.738281 L 34.179688 18.035156 L 49.183594 16.476562 L 50.65625 16.148438 C 50.574219 15.820312 50.410156 15.574219 50.246094 15.328125 L 43.855469 2.460938 L 41.394531 -1.96875 C 40.902344 -2.785156 40.574219 -3.605469 40.164062 -4.261719 L 37.214844 -8.359375 C 36.3125 -9.507812 35.410156 -10.246094 34.589844 -11.230469 L 33.6875 -11.722656 C 34.097656 -12.050781 34.589844 -12.378906 35.164062 -12.953125 L 37.542969 -15.246094 L 39.179688 -17.296875 C 40.328125 -18.6875 41.066406 -20.164062 42.050781 -21.722656 L 44.589844 -27.625 C 45 -28.769531 45.410156 -29.835938 45.738281 -30.984375 L 46.804688 -35.164062 C 47.214844 -38.855469 48.445312 -42.542969 47.460938 -46.230469 C 46.230469 -46.3125 44.835938 -46.394531 43.28125 -46.394531 C 38.773438 -46.394531 35 -46.148438 33.199219 -46.148438 C 32.296875 -46.230469 31.3125 -46.3125 30.574219 -46.3125 C 30.082031 -46.3125 29.671875 -46.3125 29.425781 -46.230469 Z M 29.425781 -46.230469 "/></g></g></g><g fill="#ffffff" fill-opacity="1"><g transform="translate(377.384676, 73.65724)"><g><path d="M 22.378906 9.507812 C 22.953125 9.507812 25.984375 9.753906 27.953125 9.753906 C 28.933594 9.753906 29.671875 9.671875 29.671875 9.507812 L 29.835938 8.769531 L 30.164062 -6.3125 L 30.246094 -9.671875 C 30.246094 -10.492188 30.820312 -9.425781 35.820312 -20.410156 C 36.230469 -21.066406 36.558594 -21.886719 36.96875 -22.707031 L 38.933594 -26.722656 C 39.589844 -27.953125 40.246094 -29.097656 40.820312 -30.574219 L 42.871094 -35.574219 L 44.34375 -38.609375 L 47.132812 -45.902344 C 46.96875 -46.394531 46.558594 -46.558594 46.148438 -46.558594 C 45.328125 -46.558594 33.609375 -46.886719 32.871094 -47.132812 L 32.871094 -46.886719 L 31.96875 -45.410156 L 28.523438 -36.804688 C 27.789062 -34.917969 26.804688 -33.445312 26.394531 -31.96875 L 24.753906 -28.28125 C 24.507812 -27.707031 24.179688 -27.296875 23.933594 -26.722656 L 23.117188 -25.65625 C 22.871094 -26.3125 22.789062 -26.722656 22.460938 -27.460938 L 19.589844 -35.902344 L 19.015625 -38.035156 L 15.902344 -47.953125 L 14.753906 -51.886719 C 14.015625 -53.773438 12.625 -57.296875 11.96875 -58.855469 L 10.902344 -61.394531 L 10 -64.675781 L -5.902344 -64.675781 C -5.984375 -64.675781 -5.984375 -64.59375 -5.984375 -64.511719 C -5.984375 -63.855469 -4.753906 -60.902344 -4.589844 -60.574219 L -1.640625 -52.050781 C 0.0820312 -48.363281 0.984375 -44.34375 1.96875 -41.886719 L 2.621094 -40.246094 C 2.703125 -39.835938 3.113281 -39.179688 3.277344 -38.609375 L 4.261719 -35.328125 C 4.589844 -33.851562 5.246094 -32.378906 5.65625 -30.738281 L 6.722656 -26.722656 L 8.523438 -20.410156 C 9.589844 -17.789062 10.164062 -15.246094 11.148438 -12.625 L 12.050781 -10.902344 L 12.050781 -6.476562 L 12.214844 9.179688 C 12.789062 9.671875 13.523438 8.769531 14.097656 9.261719 C 16.886719 9.34375 19.589844 9.507812 22.378906 9.507812 Z M 22.378906 9.507812 "/></g></g></g><g fill="#ffffff" fill-opacity="1"><g transform="translate(191.662391, 148.735195)"><g><path d="M 28.851562 -45.574219 C 17.378906 -45.574219 18.523438 -45.984375 5.574219 -45.984375 C 4.507812 -45.984375 3.605469 -45.738281 3.359375 -45.328125 L 2.949219 -44.019531 C 2.460938 -40.492188 2.785156 -31.394531 2.785156 -28.523438 C 6.394531 -26.558594 13.195312 -27.378906 15.984375 -26.96875 L 15.984375 -26.3125 C 15.984375 -24.917969 16.230469 -23.523438 16.230469 -21.886719 L 16.230469 -11.886719 C 16.230469 -5.164062 15.492188 -0.902344 15.492188 4.425781 C 15.492188 5.246094 16.558594 5.492188 19.097656 5.492188 C 27.625 5.492188 33.609375 3.851562 33.527344 3.851562 L 33.527344 0.902344 C 33.527344 -6.230469 32.789062 -6.722656 32.789062 -15.328125 L 32.789062 -16.804688 L 32.460938 -27.625 L 32.460938 -28.6875 L 45 -29.015625 L 45 -45.902344 C 36.96875 -45.902344 35.820312 -45.574219 28.851562 -45.574219 Z M 28.851562 -45.574219 "/></g></g></g><g fill="#ffffff" fill-opacity="1"><g transform="translate(242.149933, 148.735195)"><g><path d="M 52.707031 1.3125 L 50.984375 -2.785156 C 50.738281 -3.359375 50.574219 -3.933594 50.246094 -4.589844 L 49.425781 -6.230469 C 48.773438 -7.542969 48.527344 -8.6875 47.789062 -10.164062 L 39.179688 -33.851562 C 39.507812 -33.851562 39.835938 -34.015625 40.164062 -34.015625 L 41.722656 -34.015625 C 43.609375 -34.015625 47.871094 -34.425781 49.34375 -34.589844 C 49.261719 -34.589844 49.34375 -34.671875 49.261719 -34.753906 C 49.507812 -34.917969 49.589844 -35.246094 49.589844 -35.65625 C 49.589844 -36.148438 49.425781 -36.804688 49.425781 -37.214844 C 49.425781 -38.117188 49.671875 -41.394531 49.671875 -43.855469 C 49.671875 -45.574219 49.507812 -46.96875 49.183594 -46.96875 L 0.738281 -44.835938 C -0.164062 -43.199219 -0.410156 -39.671875 -0.738281 -37.214844 L -1.066406 -30.738281 L 9.917969 -31.148438 L 9.753906 -29.097656 L 9.34375 -27.296875 L 9.097656 -25 L 5.164062 -5.246094 C 4.917969 -4.507812 4.917969 -3.769531 4.753906 -3.113281 L 4.015625 0.65625 C 3.769531 1.96875 3.605469 3.113281 3.277344 4.097656 L 3.113281 5.574219 C 2.621094 7.625 1.96875 10 1.96875 11.640625 C 3.605469 13.03125 12.871094 13.523438 15.738281 14.589844 C 19.34375 2.621094 18.605469 1.886719 19.179688 1.476562 L 32.789062 1.148438 C 33.199219 1.148438 33.445312 1.066406 33.769531 1.066406 C 33.6875 1.066406 33.6875 0.984375 33.6875 0.902344 C 33.6875 0.984375 33.6875 0.984375 33.769531 1.066406 L 37.132812 10.984375 L 37.789062 12.296875 C 37.953125 12.707031 38.28125 13.113281 38.609375 13.441406 C 46.96875 11.886719 54.507812 10.902344 55.984375 9.261719 C 55.082031 6.230469 53.773438 3.851562 52.707031 1.3125 Z M 26.722656 -8.523438 C 26.230469 -8.523438 25.738281 -8.605469 25.328125 -8.605469 L 24.015625 -8.523438 C 23.035156 -8.523438 22.296875 -8.605469 21.394531 -8.605469 L 20.164062 -8.605469 L 23.117188 -23.769531 L 24.507812 -29.261719 C 24.753906 -29.917969 26.230469 -25.492188 29.835938 -15.738281 C 29.917969 -15.246094 30.164062 -14.917969 30.246094 -14.425781 L 30.492188 -13.851562 C 30.574219 -13.195312 30.820312 -12.625 31.066406 -11.886719 L 31.722656 -9.753906 C 31.804688 -9.425781 31.886719 -9.097656 32.132812 -8.605469 C 29.835938 -8.605469 28.851562 -8.523438 26.722656 -8.523438 Z M 26.722656 -8.523438 "/></g></g></g><g fill="#ffffff" fill-opacity="1"><g transform="translate(297.063248, 148.735195)"><g><path d="M 27.214844 -46.148438 C 25.164062 -46.066406 23.28125 -46.148438 21.394531 -45.984375 L 17.871094 -45.65625 C 4.917969 -44.425781 1.96875 -36.230469 1.96875 -20.246094 L 1.96875 -15.410156 C 1.96875 -13.769531 2.214844 -11.066406 2.542969 -9.425781 C 4.34375 -0.410156 5.574219 7.542969 20.492188 9.097656 L 23.117188 9.425781 C 24.261719 9.507812 25.65625 9.671875 26.886719 9.671875 L 30.246094 9.671875 C 31.476562 9.671875 32.789062 9.589844 33.851562 9.425781 L 36.148438 9.179688 C 40.410156 8.6875 46.476562 6.640625 47.871094 3.113281 L 48.363281 1.886719 C 48.609375 1.640625 48.691406 0.738281 48.691406 -0.328125 C 48.691406 -2.460938 48.363281 -5.328125 48.035156 -5.738281 L 31.3125 -5.902344 C 30.984375 -5.246094 30.820312 -2.621094 27.625 -2.621094 C 16.804688 -2.621094 18.523438 -34.261719 27.953125 -34.261719 L 28.6875 -34.261719 C 31.96875 -34.261719 32.050781 -32.542969 32.050781 -30.492188 C 32.050781 -28.035156 31.804688 -26.066406 31.558594 -24.261719 L 50.164062 -24.015625 C 51.3125 -26.066406 51.3125 -27.214844 51.3125 -29.671875 C 51.148438 -33.363281 50.984375 -36.3125 49.425781 -39.261719 L 48.609375 -40.820312 C 46.476562 -45.574219 38.855469 -46.148438 27.214844 -46.148438 Z M 27.214844 -46.148438 "/></g></g></g><g fill="#ffffff" fill-opacity="1"><g transform="translate(353.779666, 148.735195)"><g><path d="M 29.425781 -46.230469 C 30.410156 -42.953125 30.820312 -34.671875 27.050781 -28.933594 C 26.804688 -28.28125 26.476562 -27.789062 26.230469 -27.214844 L 24.671875 -24.261719 C 24.179688 -23.605469 23.851562 -22.789062 23.359375 -22.296875 L 22.132812 -20.820312 C 22.132812 -21.96875 21.96875 -23.6875 21.804688 -25.738281 L 21.804688 -28.605469 C 21.804688 -32.953125 21.96875 -31.394531 22.050781 -50 C 22.050781 -50.410156 21.96875 -50.820312 21.96875 -51.066406 L 21.96875 -51.886719 C 21.722656 -53.199219 21.230469 -54.183594 20.082031 -54.347656 C 13.605469 -55.246094 9.753906 -55.328125 7.214844 -55.328125 C 5.410156 -55.328125 4.261719 -55.246094 3.195312 -55.246094 C 3.195312 -52.542969 3.441406 -49.835938 3.441406 -47.132812 L 3.769531 -45.164062 C 3.769531 -42.707031 3.933594 -39.589844 3.933594 -36.558594 L 3.851562 -34.917969 L 3.851562 -33.28125 C 3.851562 -31.066406 3.933594 -29.015625 3.933594 -26.558594 L 3.933594 -19.015625 C 3.933594 -18.441406 4.015625 -17.953125 4.015625 -17.296875 C 4.015625 -16.804688 3.933594 -16.3125 3.933594 -15.820312 L 4.015625 -6.394531 C 4.261719 -1.96875 4.425781 3.441406 4.425781 6.066406 C 4.425781 8.113281 5 10.246094 5.082031 12.296875 C 5.082031 13.523438 5.164062 14.671875 5.328125 15.902344 C 7.625 15.902344 10.410156 15.738281 13.113281 15.738281 C 15.164062 15.738281 17.132812 15.820312 18.933594 16.148438 L 20.984375 16.558594 C 20.984375 14.835938 21.066406 9.34375 21.066406 5.410156 L 21.066406 0.738281 C 26.476562 3.6875 28.035156 5.738281 30.082031 10.328125 C 30.820312 12.214844 31.886719 14.34375 32.625 15.738281 L 34.179688 18.035156 L 49.183594 16.476562 L 50.65625 16.148438 C 50.574219 15.820312 50.410156 15.574219 50.246094 15.328125 L 43.855469 2.460938 L 41.394531 -1.96875 C 40.902344 -2.785156 40.574219 -3.605469 40.164062 -4.261719 L 37.214844 -8.359375 C 36.3125 -9.507812 35.410156 -10.246094 34.589844 -11.230469 L 33.6875 -11.722656 C 34.097656 -12.050781 34.589844 -12.378906 35.164062 -12.953125 L 37.542969 -15.246094 L 39.179688 -17.296875 C 40.328125 -18.6875 41.066406 -20.164062 42.050781 -21.722656 L 44.589844 -27.625 C 45 -28.769531 45.410156 -29.835938 45.738281 -30.984375 L 46.804688 -35.164062 C 47.214844 -38.855469 48.445312 -42.542969 47.460938 -46.230469 C 46.230469 -46.3125 44.835938 -46.394531 43.28125 -46.394531 C 38.773438 -46.394531 35 -46.148438 33.199219 -46.148438 C 32.296875 -46.230469 31.3125 -46.3125 30.574219 -46.3125 C 30.082031 -46.3125 29.671875 -46.3125 29.425781 -46.230469 Z M 29.425781 -46.230469 "/></g></g></g><g fill="#ffffff" fill-opacity="1"><g transform="translate(407.8734, 148.735195)"><g><path d="M 52.707031 1.3125 L 50.984375 -2.785156 C 50.738281 -3.359375 50.574219 -3.933594 50.246094 -4.589844 L 49.425781 -6.230469 C 48.773438 -7.542969 48.527344 -8.6875 47.789062 -10.164062 L 39.179688 -33.851562 C 39.507812 -33.851562 39.835938 -34.015625 40.164062 -34.015625 L 41.722656 -34.015625 C 43.609375 -34.015625 47.871094 -34.425781 49.34375 -34.589844 C 49.261719 -34.589844 49.34375 -34.671875 49.261719 -34.753906 C 49.507812 -34.917969 49.589844 -35.246094 49.589844 -35.65625 C 49.589844 -36.148438 49.425781 -36.804688 49.425781 -37.214844 C 49.425781 -38.117188 49.671875 -41.394531 49.671875 -43.855469 C 49.671875 -45.574219 49.507812 -46.96875 49.183594 -46.96875 L 0.738281 -44.835938 C -0.164062 -43.199219 -0.410156 -39.671875 -0.738281 -37.214844 L -1.066406 -30.738281 L 9.917969 -31.148438 L 9.753906 -29.097656 L 9.34375 -27.296875 L 9.097656 -25 L 5.164062 -5.246094 C 4.917969 -4.507812 4.917969 -3.769531 4.753906 -3.113281 L 4.015625 0.65625 C 3.769531 1.96875 3.605469 3.113281 3.277344 4.097656 L 3.113281 5.574219 C 2.621094 7.625 1.96875 10 1.96875 11.640625 C 3.605469 13.03125 12.871094 13.523438 15.738281 14.589844 C 19.34375 2.621094 18.605469 1.886719 19.179688 1.476562 L 32.789062 1.148438 C 33.199219 1.148438 33.445312 1.066406 33.769531 1.066406 C 33.6875 1.066406 33.6875 0.984375 33.6875 0.902344 C 33.6875 0.984375 33.6875 0.984375 33.769531 1.066406 L 37.132812 10.984375 L 37.789062 12.296875 C 37.953125 12.707031 38.28125 13.113281 38.609375 13.441406 C 46.96875 11.886719 54.507812 10.902344 55.984375 9.261719 C 55.082031 6.230469 53.773438 3.851562 52.707031 1.3125 Z M 26.722656 -8.523438 C 26.230469 -8.523438 25.738281 -8.605469 25.328125 -8.605469 L 24.015625 -8.523438 C 23.035156 -8.523438 22.296875 -8.605469 21.394531 -8.605469 L 20.164062 -8.605469 L 23.117188 -23.769531 L 24.507812 -29.261719 C 24.753906 -29.917969 26.230469 -25.492188 29.835938 -15.738281 C 29.917969 -15.246094 30.164062 -14.917969 30.246094 -14.425781 L 30.492188 -13.851562 C 30.574219 -13.195312 30.820312 -12.625 31.066406 -11.886719 L 31.722656 -9.753906 C 31.804688 -9.425781 31.886719 -9.097656 32.132812 -8.605469 C 29.835938 -8.605469 28.851562 -8.523438 26.722656 -8.523438 Z M 26.722656 -8.523438 "/></g></g></g><g clip-path="url(#6bb4ed8cc9)"><path fill="#ea3333" d="M 147.136719 149.34375 L 132.671875 133.441406 L 148.574219 118.976562 L 140.390625 109.976562 L 124.488281 124.4375 L 110.023438 108.535156 L 101.019531 116.726562 L 115.484375 132.625 L 99.582031 147.089844 L 107.769531 156.089844 L 123.671875 141.628906 L 138.136719 157.527344 L 147.136719 149.34375 " fill-opacity="1" fill-rule="nonzero"/></g><g clip-path="url(#2f99313e0a)"><g clip-path="url(#80b1670fed)"><path fill="url(#c97156ca1e)" d="M 23.835938 110.101562 L 23.835938 155.945312 L 69.679688 155.945312 L 69.679688 110.101562 Z M 23.835938 110.101562 " fill-rule="nonzero"/></g></g></svg>